<svg xmlns="http://www.w3.org/2000/svg" xmlns:xlink="http://www.w3.org/1999/xlink" width="500" zoomAndPan="magnify" viewBox="0 0 375 374.999991" height="500" preserveAspectRatio="xMidYMid meet" version="1.0"><defs><clipPath id="204d18e9fe"><path d="M 11.679688 11.679688 L 363.320312 11.679688 L 363.320312 363.320312 L 11.679688 363.320312 Z M 11.679688 11.679688 " clip-rule="nonzero"/></clipPath><clipPath id="62ba42dd77"><path d="M 187.5 11.679688 C 90.398438 11.679688 11.679688 90.398438 11.679688 187.5 C 11.679688 284.601562 90.398438 363.320312 187.5 363.320312 C 284.601562 363.320312 363.320312 284.601562 363.320312 187.5 C 363.320312 90.398438 284.601562 11.679688 187.5 11.679688 Z M 187.5 11.679688 " clip-rule="nonzero"/></clipPath><clipPath id="1719c3d94c"><path d="M 40.644531 103.46875 L 334.644531 103.46875 L 334.644531 296.96875 L 40.644531 296.96875 Z M 40.644531 103.46875 " clip-rule="nonzero"/></clipPath></defs><g clip-path="url(#204d18e9fe)"><g clip-path="url(#62ba42dd77)"><path fill="#ffffff" d="M 11.679688 11.679688 L 363.320312 11.679688 L 363.320312 363.320312 L 11.679688 363.320312 Z M 11.679688 11.679688 " fill-opacity="1" fill-rule="nonzero"/></g></g><g clip-path="url(#1719c3d94c)"><path fill="#48777d" d="M 110.664062 289.613281 L 110.664062 103.46875 C 161.535156 103.46875 213.226562 103.46875 263.503906 103.46875 C 290.46875 103.46875 315.195312 112.21875 334.34375 131.015625 L 310.378906 155.335938 C 297.984375 142.941406 279.835938 136.363281 263.503906 136.363281 C 217.628906 136.363281 199.832031 168.492188 199.480469 199.390625 C 199.304688 230.519531 218.628906 263.824219 263.503906 263.824219 C 279.894531 263.824219 296.222656 258.246094 308.382812 246.261719 L 331.9375 268.996094 C 312.789062 287.734375 288.824219 297.308594 263.503906 297.308594 C 196.25 297.308594 164.765625 247.847656 164.941406 199.332031 C 165.175781 176.304688 171.753906 153.574219 186.320312 135.773438 L 145.792969 135.773438 L 145.792969 289.613281 Z M 99.09375 135.773438 L 40.648438 135.773438 L 40.648438 103.46875 L 99.09375 103.46875 Z M 99.09375 135.773438 " fill-opacity="1" fill-rule="nonzero"/></g></svg>